<svg xmlns="http://www.w3.org/2000/svg" width="14" height="18" viewBox="0 0 14 18">
  <defs>
    <style>
      .cls-1 {
        fill: #d26938;
        fill-rule: evenodd;
      }
    </style>
  </defs>
  <path id="medal-bronze" class="cls-1" d="M168.794,3h4.412L174,0h-6ZM164,2.518L167.375,10A5.047,5.047,0,0,1,170,8.9l-2.412-6.378L166.636,0ZM175.364,0l-0.953,2.523L172,8.911A5.049,5.049,0,0,1,174.634,10L178,2.523ZM171,18a4,4,0,0,0,2.848-6.807c-0.034-.035-0.071-0.067-0.107-0.1s-0.072-.066-0.108-0.1a3.978,3.978,0,0,0-2.248-.974c-0.047,0-.1,0-0.144-0.007s-0.1-.006-0.144-0.007-0.064,0-.1,0-0.083,0-.126.007-0.1,0-.145.007-0.1,0-.143.008a3.977,3.977,0,0,0-2.24.992c-0.037.032-.073,0.064-0.108,0.1s-0.072.068-.106,0.1A4,4,0,0,0,171,18Z" transform="translate(-164)"/>
</svg>
