<svg xmlns="http://www.w3.org/2000/svg" width="14" height="18" viewBox="0 0 14 18">
  <defs>
    <style>
      .cls-1 {
        fill: #b9b9b9;
        fill-rule: evenodd;
      }
    </style>
  </defs>
  <path id="medal-silver" class="cls-1" d="M128.794,3h4.412L134,0h-6ZM124,2.518L127.375,10A5.047,5.047,0,0,1,130,8.9l-2.412-6.378L126.636,0ZM135.364,0l-0.953,2.523L132,8.911A5.049,5.049,0,0,1,134.634,10L138,2.523ZM131,18a4,4,0,0,0,2.848-6.807c-0.034-.035-0.071-0.067-0.107-0.1s-0.072-.066-0.108-0.1a3.978,3.978,0,0,0-2.248-.974c-0.047,0-.1,0-0.144-0.007s-0.1-.006-0.144-0.007-0.064,0-.1,0-0.083,0-.126.007-0.1,0-.144.007-0.1,0-.145.008a3.977,3.977,0,0,0-2.239.992c-0.037.032-.073,0.064-0.108,0.1s-0.072.068-.106,0.1A4,4,0,0,0,131,18Z" transform="translate(-124)"/>
</svg>
