<svg xmlns="http://www.w3.org/2000/svg" width="18" height="18" viewBox="0 0 18 18">
  <defs>
    <style>
      .cls-1 {
        fill: #6bbd45;
        fill-rule: evenodd;
      }
    </style>
  </defs>
  <path id="user" class="cls-1" d="M18,9A9,9,0,1,0,2.921,15.63l-0.008.008L3.2,15.884c0.019,0.016.04,0.029,0.059,0.045,0.155,0.128.316,0.251,0.479,0.369,0.053,0.038.106,0.077,0.16,0.114q0.262,0.181.537,0.343l0.12,0.069c0.2,0.114.406,0.222,0.615,0.321l0.046,0.021a8.919,8.919,0,0,0,2.177.689l0.06,0.011c0.237,0.041.476,0.074,0.719,0.1l0.089,0.007C8.508,17.987,8.753,18,9,18s0.487-.013.727-0.032l0.091-.007q0.361-.033.713-0.094l0.061-.011a8.916,8.916,0,0,0,2.146-.673l0.075-.034q0.3-.142.593-0.306l0.144-.083c0.176-.1.349-0.212,0.517-0.327,0.061-.041.12-0.085,0.18-0.128,0.144-.1.285-0.21,0.422-0.322,0.03-.024.063-0.046,0.093-0.071l0.3-.25-0.009-.008A8.977,8.977,0,0,0,18,9ZM0.655,9a8.345,8.345,0,1,1,13.88,6.239,2.461,2.461,0,0,0-.292-0.176l-2.771-1.385a0.725,0.725,0,0,1-.4-0.652V12.058c0.064-.079.132-0.169,0.2-0.267a6.666,6.666,0,0,0,.856-1.677,1.188,1.188,0,0,0,.682-1.076V7.877a1.191,1.191,0,0,0-.29-0.775V5.574A2.64,2.64,0,0,0,11.9,3.655,3.684,3.684,0,0,0,9,2.618,3.685,3.685,0,0,0,6.1,3.655a2.639,2.639,0,0,0-.616,1.919V7.1a1.192,1.192,0,0,0-.29.775v1.16a1.191,1.191,0,0,0,.439.923,6.149,6.149,0,0,0,1.012,2.091V13a0.73,0.73,0,0,1-.38.641L3.674,15.051a2.382,2.382,0,0,0-.246.156A8.325,8.325,0,0,1,.655,9Z"/>
</svg>
